<?xml version="1.0" encoding="UTF-8" standalone="no"?>
<svg
   width="511.99866"
   height="512.00073"
   viewBox="0 0 511.99866 512.00073"
   version="1.1"
   xml:space="preserve"
   style="clip-rule:evenodd;fill-rule:evenodd"
   id="svg92"
   xmlns="http://www.w3.org/2000/svg"
   xmlns:svg="http://www.w3.org/2000/svg"><defs
   id="defs92" />
    
    
    
    
    
    
    
    
    
    
    
    
    
    <g
   id="Artboard3"
   transform="matrix(1.19906,0,0,1.11547,-1942.477,-2362.5654)">
        <rect
   x="1620"
   y="2118"
   width="427"
   height="459"
   style="fill:none"
   id="rect86" />
        <clipPath
   id="_clip1">
            <rect
   x="1620"
   y="2118"
   width="427"
   height="459"
   id="rect87" />
        </clipPath>
        <g
   clip-path="url(#_clip1)"
   id="g89">
            <g
   transform="matrix(0.837255,0,0,0.9,323.929,772.5)"
   id="g87">
                <circle
   cx="1803"
   cy="1750"
   r="255"
   style="fill:#fe4500"
   id="circle87" />
            </g>
            <g
   transform="matrix(0.833984,0,0,0.896484,-175.445,2102.15)"
   id="g88">
                <path
   d="m 2291.91,318.661 c 0.93,0.906 1.33,2.229 1.05,3.498 -0.01,0.007 -0.01,0.013 -0.01,0.02 -1.27,6.167 -0.75,12.412 1.35,18.404 3.43,9.782 11.72,19.437 25.38,25.924 16.34,7.761 37.86,9.552 56.33,5.208 9.28,-2.151 16.21,-10.015 17.17,-19.55 0.16,-1.635 0.14,-3.256 -0.04,-4.841 5.61,0.524 11.23,-1.094 15.71,-4.54 4.48,3.446 10.1,5.064 15.71,4.54 -0.18,1.585 -0.2,3.206 -0.03,4.841 0.96,9.534 7.88,17.399 17.22,19.562 18.41,4.332 39.93,2.542 56.27,-5.22 13.66,-6.487 21.95,-16.142 25.38,-25.924 2.1,-5.992 2.63,-12.237 1.35,-18.404 0,-0.007 0,-0.013 -0.01,-0.019 -0.28,-1.27 0.12,-2.594 1.05,-3.5 8.15,-7.782 19.77,-9.058 28.91,-2.436 11.39,8.248 15.84,25.166 11,39.847 -1.56,4.717 1.01,9.81 5.73,11.365 4.72,1.556 9.81,-1.011 11.37,-5.729 7.32,-22.222 -0.3,-47.577 -17.54,-60.062 -3.6,-2.609 -7.43,-4.555 -11.36,-5.855 0,-0.002 -0.01,-0.004 -0.01,-0.006 -0.39,-0.122 -0.68,-0.435 -0.77,-0.826 -0.1,-0.39 0.02,-0.802 0.3,-1.085 0.01,-0.003 0.01,-0.005 0.01,-0.008 2.15,-2.159 4.16,-4.346 6.03,-6.568 0,-0.003 0,-0.006 0,-0.008 3.71,-4.489 8.84,-7.581 14.55,-8.767 0,0 0,-10e-4 0.01,-0.002 5.51,-1.196 11.19,-0.833 15.7,2.301 8.47,5.887 12.26,14.996 13.16,27.264 0.36,4.955 4.67,8.683 9.63,8.322 4.95,-0.362 8.68,-4.677 8.32,-9.631 -1.36,-18.543 -8.04,-31.839 -20.84,-40.736 -6.88,-4.779 -15.31,-6.46 -23.78,-5.812 -0.01,10e-4 -0.01,10e-4 -0.02,0.002 -0.43,0.038 -0.86,-0.138 -1.14,-0.472 -0.28,-0.335 -0.38,-0.785 -0.26,-1.206 0,-0.007 0,-0.014 0,-0.021 4.24,-16.508 1.43,-33.821 -9,-50.605 -9.51,-15.321 -27.77,-29.364 -49.73,-40.655 -32.73,-16.835 -73.67,-27.587 -105.64,-27.587 -33.33,0 -74.27,10.165 -107.07,26.455 -22,10.925 -40.34,24.618 -50.37,39.803 -11.37,17.193 -14.46,35.288 -10,52.61 0,0.002 0,0.005 0,0.008 0.12,0.426 0.01,0.88 -0.27,1.216 -0.28,0.337 -0.72,0.514 -1.15,0.474 -0.01,0 -0.01,-10e-4 -0.02,-10e-4 -8.49,-0.676 -16.93,1.002 -23.82,5.791 -12.81,8.897 -19.49,22.193 -20.84,40.736 -0.37,4.954 3.36,9.269 8.32,9.631 4.95,0.361 9.27,-3.367 9.63,-8.322 0.89,-12.268 4.69,-21.377 13.16,-27.264 4.22,-2.936 9.47,-3.439 14.65,-2.537 6.13,1.065 11.66,4.312 15.57,9.14 1.77,2.235 3.72,4.407 5.8,6.54 0,10e-4 0,0.002 0.01,0.003 0.28,0.288 0.39,0.701 0.3,1.092 -0.1,0.392 -0.39,0.706 -0.77,0.831 -0.01,0.001 -0.01,0.003 -0.02,0.004 -3.83,1.286 -7.56,3.202 -11.08,5.751 -17.24,12.485 -24.87,37.84 -17.54,60.062 1.55,4.718 6.65,7.285 11.36,5.729 4.72,-1.555 7.29,-6.648 5.73,-11.365 -4.84,-14.681 -0.39,-31.599 11,-39.847 9.15,-6.622 20.76,-5.346 28.91,2.437 z m 80.82,27.27 c 1.7,0.781 2.72,2.561 2.54,4.428 -0.19,1.868 -1.55,3.409 -3.38,3.833 0,10e-4 0,10e-4 0,10e-4 -14.59,3.43 -31.59,2.182 -44.49,-3.945 -10.09,-4.794 -16.04,-11.789 -16.95,-19.173 -0.59,-4.809 1,-9.735 4.91,-14.228 10.27,-11.822 33.22,-17.355 54.06,-13.217 15.36,3.05 26.55,10.734 29.92,19.948 0.55,1.548 0.18,3.275 -0.95,4.47 -1.12,1.192 -2.82,1.655 -4.39,1.202 -5.64,-1.73 -12.94,-3.861 -17.2,-4.671 -13.14,-2.504 -18.83,0.175 -21.11,1.988 0,0.003 -0.01,0.006 -0.01,0.009 -1.43,1.159 -1.94,3.11 -1.27,4.822 0,0.009 0.01,0.018 0.01,0.027 1.11,2.669 4.53,8.06 15.44,13.195 0.84,0.396 1.82,0.841 2.87,1.311 z m 72.24,0 c 1.06,-0.47 2.03,-0.915 2.87,-1.311 10.92,-5.135 14.33,-10.526 15.44,-13.195 0.01,-0.009 0.01,-0.018 0.01,-0.027 0.68,-1.712 0.16,-3.663 -1.27,-4.822 0,-0.003 0,-0.006 -0.01,-0.009 -2.28,-1.813 -7.96,-4.492 -21.11,-1.988 -4.25,0.81 -11.55,2.941 -17.19,4.668 -1.57,0.458 -3.28,-0.004 -4.4,-1.199 -1.13,-1.195 -1.49,-2.922 -0.94,-4.47 3.36,-9.214 14.55,-16.898 29.91,-19.948 20.85,-4.138 43.8,1.395 54.07,13.217 3.9,4.493 5.49,9.419 4.9,14.228 -0.91,7.384 -6.86,14.379 -16.95,19.173 -12.9,6.127 -29.9,7.375 -44.48,3.945 -0.01,0 -0.01,0 -0.01,-10e-4 -1.83,-0.424 -3.19,-1.965 -3.37,-3.833 -0.19,-1.867 0.83,-3.647 2.53,-4.428 z m 66.5,-45.308 c -0.01,-0.005 -0.01,-0.009 -0.02,-0.013 -14.97,-12.842 -41.8,-19.574 -66.67,-14.635 -15.06,2.988 -26.9,9.715 -34.64,17.86 -0.01,0.009 -0.02,0.018 -0.03,0.028 -0.32,0.356 -0.78,0.559 -1.26,0.559 -0.48,0 -0.94,-0.203 -1.26,-0.559 -0.01,-0.009 -0.01,-0.018 -0.02,-0.027 -7.75,-8.146 -19.59,-14.873 -34.64,-17.861 -25.19,-5 -52.37,1.962 -67.23,15.119 0,0.004 -0.01,0.009 -0.01,0.013 -0.55,0.494 -1.34,0.586 -1.99,0.229 -40.02,-22.397 -55.78,-55.092 -35.71,-85.47 8.96,-13.547 24.61,-25.516 43.66,-35.036 28.79,-14.38 65.36,-23.146 98.68,-23.146 33.28,0 69.51,9.251 97.78,24.065 18.71,9.807 33.93,22.039 42.39,35.671 18.87,30.389 3,61.608 -37.09,83.422 -0.63,0.34 -1.4,0.253 -1.94,-0.219 z m -6.78,-64.534 c 0.21,-21.312 -16.52,-35.026 -35.1,-38.094 -18.91,-3.122 -38.72,4.968 -43.98,24.686 -1.28,4.8 1.58,9.735 6.38,11.015 4.8,1.28 9.73,-1.578 11.01,-6.377 2.75,-10.293 13.78,-13.194 23.65,-11.564 10.2,1.683 20.15,8.463 20.04,20.156 -0.05,4.967 3.94,9.039 8.91,9.089 4.96,0.049 9.04,-3.944 9.09,-8.911 z m -173.67,-0.178 c -0.12,-11.693 9.84,-18.473 20.03,-20.156 9.87,-1.63 20.9,1.271 23.65,11.564 1.28,4.799 6.21,7.657 11.01,6.377 4.8,-1.28 7.66,-6.215 6.38,-11.015 -5.26,-19.718 -25.06,-27.808 -43.97,-24.686 -18.59,3.068 -35.32,16.782 -35.1,38.094 0.05,4.967 4.12,8.96 9.09,8.911 4.96,-0.05 8.96,-4.122 8.91,-9.089 z"
   style="fill:#ffdbce"
   id="path87" />
            </g>
        </g>
    </g>
    
</svg>
